<svg xmlns="http://www.w3.org/2000/svg" viewBox="0 0 32 32" id="piggy-bank" width='50px'>
    <path
        d="M29.568 14.463a1.713 1.713 0 0 0-1.292-.59h-2.468a8.203 8.203 0 0 0-1.785-1.81l.415-2.83a.999.999 0 0 0-1.46-1.029L20.66 9.44c.034-.217.066-.435.066-.662 0-2.333-1.852-4.23-4.128-4.23s-4.129 1.897-4.129 4.23c0 .544.11 1.06.293 1.538-3.64 1.077-6.267 3.634-6.533 6.666-.882.656-1.646.581-2.56-.239a.999.999 0 1 0-1.335 1.488c.89.8 1.827 1.2 2.764 1.2.447 0 .893-.098 1.335-.28.475 1.63 1.645 3.095 3.379 4.196v3.105a1 1 0 0 0 1 1h3.617a1 1 0 0 0 1-1V25.16c.783.068 1.527.071 2.341-.005v1.298a1 1 0 0 0 1 1h3.617a1 1 0 0 0 1-1v-3.12c.998-.635 1.821-1.393 2.42-2.23h1.326c1.213 0 2.254-.922 2.423-2.146l.428-3.094a1.76 1.76 0 0 0-.415-1.4zm-1.994 4.22c-.033.239-.223.42-.442.42h-1.866a1 1 0 0 0-.861.49c-.516.873-1.383 1.669-2.509 2.3a1 1 0 0 0-.51.873v2.686H19.77v-1.44a.998.998 0 0 0-1.168-.986c-1.502.255-2.683.235-4.006.011a1 1 0 0 0-1.167.986v1.43h-1.617v-2.674a1 1 0 0 0-.512-.873c-1.974-1.104-3.106-2.715-3.106-4.419 0-3.155 3.77-5.722 8.406-5.722.928 0 1.864.113 2.782.336.237.056.49.025.706-.09l2.085-1.11-.217 1.48c-.057.387.116.77.441.983.871.57 1.565 1.268 2.009 2.018a1 1 0 0 0 .86.491h2.698l-.39 2.81zM14.468 8.778c0-1.23.955-2.23 2.129-2.23 1.173 0 2.128 1 2.128 2.23 0 .412-.115.793-.301 1.125a13.661 13.661 0 0 0-1.825-.138c-.627 0-1.238.048-1.835.127a2.283 2.283 0 0 1-.296-1.114z"></path>
    <path d="M20.704 13.863h-.01c-.552 0-.995.448-.995 1s.453 1 1.005 1a1 1 0 1 0 0-2z"></path>
</svg>